<svg id="backup_black_36dp" xmlns="http://www.w3.org/2000/svg" width="28.318" height="28.318" viewBox="0 0 28.318 28.318">
  <path id="패스_37390" data-name="패스 37390" d="M0,0H28.318V28.318H0Z" fill="none"/>
  <path id="패스_37391" data-name="패스 37391" d="M22.832,11.127A8.841,8.841,0,0,0,6.313,8.767,7.077,7.077,0,0,0,7.08,22.879H22.419a5.883,5.883,0,0,0,.413-11.752Zm-.413,9.392H7.08a4.716,4.716,0,0,1-.519-9.4l1.263-.13.59-1.121a6.474,6.474,0,0,1,12.106,1.723l.354,1.77,1.805.13a3.52,3.52,0,0,1-.26,7.032Zm-12.979-5.9h3.009v3.54H15.87v-3.54h3.009L14.159,9.9Z" transform="translate(0 0.72)" fill="#217566"/>
</svg>
